<?xml version="1.0" encoding="UTF-8" standalone="no"?>
<!DOCTYPE svg PUBLIC "-//W3C//DTD SVG 1.1//EN" "http://www.w3.org/Graphics/SVG/1.1/DTD/svg11.dtd">
<svg width="100%" height="100%" viewBox="0 0 1700 300" version="1.1" xmlns="http://www.w3.org/2000/svg" xmlns:xlink="http://www.w3.org/1999/xlink" xml:space="preserve" xmlns:serif="http://www.serif.com/" style="fill-rule:evenodd;clip-rule:evenodd;stroke-linejoin:round;stroke-miterlimit:2;">
    <g id="DATA-PLATFORM" serif:id="DATA PLATFORM">
        <g id="MCP-Datahub" serif:id="MCP Datahub">
            <g transform="matrix(1,0,0,1,-5,57.75)">
                <g transform="matrix(172,0,0,172,327,181.6)">
                    <path d="M0.337,-0.8L0.391,-0.54L0.399,-0.54L0.556,-0.8L0.686,-0.8L0.53,-0L0.39,-0L0.469,-0.407L0.461,-0.407L0.33,-0.19L0.324,-0.19L0.276,-0.406L0.269,-0.406L0.19,-0L0.05,-0L0.206,-0.8L0.337,-0.8Z" style="fill:white;fill-rule:nonzero;"/>
                </g>
                <g transform="matrix(172,0,0,172,426.76,181.6)">
                    <path d="M0.493,-0.325L0.451,-0.11C0.445,-0.077 0.43,-0.051 0.407,-0.031C0.384,-0.01 0.356,-0 0.323,-0L0.16,-0C0.131,-0 0.109,-0.008 0.093,-0.023C0.077,-0.038 0.069,-0.059 0.069,-0.085C0.069,-0.096 0.07,-0.104 0.071,-0.11L0.184,-0.69C0.191,-0.723 0.206,-0.75 0.23,-0.77C0.254,-0.79 0.283,-0.8 0.316,-0.8L0.479,-0.8C0.506,-0.8 0.528,-0.793 0.544,-0.778C0.559,-0.763 0.567,-0.742 0.567,-0.717C0.567,-0.708 0.566,-0.699 0.564,-0.69L0.523,-0.477L0.383,-0.477L0.418,-0.66L0.318,-0.66L0.217,-0.14L0.317,-0.14L0.353,-0.325L0.493,-0.325Z" style="fill:white;fill-rule:nonzero;"/>
                </g>
                <g transform="matrix(172,0,0,172,509.32,181.6)">
                    <path d="M0.479,-0.8C0.506,-0.8 0.528,-0.793 0.544,-0.778C0.559,-0.763 0.567,-0.742 0.567,-0.717C0.567,-0.708 0.566,-0.699 0.564,-0.69L0.508,-0.402C0.502,-0.369 0.487,-0.343 0.464,-0.323C0.441,-0.302 0.413,-0.292 0.38,-0.292L0.247,-0.292L0.19,-0L0.05,-0L0.206,-0.8L0.479,-0.8ZM0.374,-0.432L0.418,-0.66L0.318,-0.66L0.274,-0.432L0.374,-0.432Z" style="fill:white;fill-rule:nonzero;"/>
                </g>
                <g transform="matrix(172,0,0,172,624.56,181.6)">
                    <path d="M0.206,-0.8L0.469,-0.8C0.497,-0.8 0.52,-0.791 0.538,-0.773C0.555,-0.754 0.564,-0.731 0.564,-0.704C0.564,-0.693 0.563,-0.685 0.562,-0.68L0.453,-0.119C0.446,-0.086 0.429,-0.058 0.402,-0.035C0.375,-0.012 0.345,-0 0.313,-0L0.05,-0L0.206,-0.8ZM0.317,-0.14L0.418,-0.66L0.318,-0.66L0.217,-0.14L0.317,-0.14Z" style="fill:white;fill-rule:nonzero;"/>
                </g>
                <g transform="matrix(172,0,0,172,707.12,181.6)">
                    <path d="M0.354,-0.267L0.248,-0.267L0.181,-0L0.04,-0L0.214,-0.69C0.233,-0.763 0.273,-0.8 0.336,-0.8L0.477,-0.8C0.528,-0.8 0.554,-0.773 0.554,-0.718C0.554,-0.713 0.553,-0.703 0.552,-0.69L0.458,-0L0.317,-0L0.354,-0.267ZM0.373,-0.405L0.408,-0.66L0.346,-0.66L0.283,-0.405L0.373,-0.405Z" style="fill:white;fill-rule:nonzero;"/>
                </g>
                <g transform="matrix(172,0,0,172,786.756,181.6)">
                    <path d="M0.586,-0.8L0.559,-0.662L0.439,-0.662L0.31,-0L0.17,-0L0.299,-0.662L0.179,-0.662L0.206,-0.8L0.586,-0.8Z" style="fill:white;fill-rule:nonzero;"/>
                </g>
                <g transform="matrix(172,0,0,172,863.296,181.6)">
                    <path d="M0.354,-0.267L0.248,-0.267L0.181,-0L0.04,-0L0.214,-0.69C0.233,-0.763 0.273,-0.8 0.336,-0.8L0.477,-0.8C0.528,-0.8 0.554,-0.773 0.554,-0.718C0.554,-0.713 0.553,-0.703 0.552,-0.69L0.458,-0L0.317,-0L0.354,-0.267ZM0.373,-0.405L0.408,-0.66L0.346,-0.66L0.283,-0.405L0.373,-0.405Z" style="fill:white;fill-rule:nonzero;"/>
                </g>
                <g transform="matrix(172,0,0,172,981.632,181.6)">
                    <path d="M0.479,-0.8C0.506,-0.8 0.528,-0.793 0.544,-0.778C0.559,-0.763 0.567,-0.742 0.567,-0.717C0.567,-0.708 0.566,-0.699 0.564,-0.69L0.508,-0.402C0.502,-0.369 0.487,-0.343 0.464,-0.323C0.441,-0.302 0.413,-0.292 0.38,-0.292L0.247,-0.292L0.19,-0L0.05,-0L0.206,-0.8L0.479,-0.8ZM0.374,-0.432L0.418,-0.66L0.318,-0.66L0.274,-0.432L0.374,-0.432Z" style="fill:white;fill-rule:nonzero;"/>
                </g>
                <g transform="matrix(172,0,0,172,1064.19,181.6)">
                    <path d="M0.206,-0.8L0.346,-0.8L0.217,-0.138L0.412,-0.138L0.385,-0L0.05,-0L0.206,-0.8Z" style="fill:white;fill-rule:nonzero;"/>
                </g>
                <g transform="matrix(172,0,0,172,1139.01,181.6)">
                    <path d="M0.354,-0.267L0.248,-0.267L0.181,-0L0.04,-0L0.214,-0.69C0.233,-0.763 0.273,-0.8 0.336,-0.8L0.477,-0.8C0.528,-0.8 0.554,-0.773 0.554,-0.718C0.554,-0.713 0.553,-0.703 0.552,-0.69L0.458,-0L0.317,-0L0.354,-0.267ZM0.373,-0.405L0.408,-0.66L0.346,-0.66L0.283,-0.405L0.373,-0.405Z" style="fill:white;fill-rule:nonzero;"/>
                </g>
                <g transform="matrix(172,0,0,172,1218.65,181.6)">
                    <path d="M0.586,-0.8L0.559,-0.662L0.439,-0.662L0.31,-0L0.17,-0L0.299,-0.662L0.179,-0.662L0.206,-0.8L0.586,-0.8Z" style="fill:white;fill-rule:nonzero;"/>
                </g>
                <g transform="matrix(172,0,0,172,1301.21,181.6)">
                    <path d="M0.519,-0.662L0.319,-0.662L0.278,-0.454L0.468,-0.454L0.441,-0.316L0.251,-0.316L0.19,-0L0.05,-0L0.206,-0.8L0.546,-0.8L0.519,-0.662Z" style="fill:white;fill-rule:nonzero;"/>
                </g>
                <g transform="matrix(172,0,0,172,1376.89,181.6)">
                    <path d="M0.184,-0.69C0.191,-0.723 0.206,-0.75 0.23,-0.77C0.254,-0.79 0.283,-0.8 0.316,-0.8L0.479,-0.8C0.506,-0.8 0.528,-0.793 0.544,-0.778C0.559,-0.763 0.567,-0.742 0.567,-0.717C0.567,-0.708 0.566,-0.699 0.564,-0.69L0.451,-0.11C0.445,-0.077 0.43,-0.051 0.407,-0.031C0.384,-0.01 0.356,-0 0.323,-0L0.16,-0C0.131,-0 0.109,-0.008 0.093,-0.023C0.077,-0.038 0.069,-0.059 0.069,-0.085C0.069,-0.096 0.07,-0.104 0.071,-0.11L0.184,-0.69ZM0.317,-0.14L0.418,-0.66L0.318,-0.66L0.217,-0.14L0.317,-0.14Z" style="fill:white;fill-rule:nonzero;"/>
                </g>
                <g transform="matrix(172,0,0,172,1459.45,181.6)">
                    <path d="M0.206,-0.8L0.479,-0.8C0.506,-0.8 0.528,-0.793 0.544,-0.778C0.559,-0.763 0.567,-0.742 0.567,-0.717C0.567,-0.708 0.566,-0.699 0.564,-0.69L0.522,-0.475C0.519,-0.458 0.512,-0.442 0.5,-0.427C0.488,-0.411 0.473,-0.397 0.456,-0.386C0.467,-0.377 0.475,-0.367 0.481,-0.355C0.486,-0.342 0.489,-0.329 0.489,-0.314C0.489,-0.309 0.488,-0.301 0.487,-0.292L0.43,-0L0.29,-0L0.352,-0.317L0.252,-0.317L0.19,-0L0.05,-0L0.206,-0.8ZM0.378,-0.455L0.418,-0.66L0.318,-0.66L0.278,-0.455L0.378,-0.455Z" style="fill:white;fill-rule:nonzero;"/>
                </g>
                <g transform="matrix(172,0,0,172,1542.01,181.6)">
                    <path d="M0.337,-0.8L0.391,-0.54L0.399,-0.54L0.556,-0.8L0.686,-0.8L0.53,-0L0.39,-0L0.469,-0.407L0.461,-0.407L0.33,-0.19L0.324,-0.19L0.276,-0.406L0.269,-0.406L0.19,-0L0.05,-0L0.206,-0.8L0.337,-0.8Z" style="fill:white;fill-rule:nonzero;"/>
                </g>
            </g>
            <g transform="matrix(1,3.31276e-17,0,1,-1093,-68.75)">
                <g transform="matrix(48,0,0,48,1451,154.4)">
                    <path d="M0.586,-0.8L0.559,-0.662L0.439,-0.662L0.31,-0L0.17,-0L0.299,-0.662L0.179,-0.662L0.206,-0.8L0.586,-0.8Z" style="fill:white;fill-rule:nonzero;"/>
                </g>
                <g transform="matrix(48,0,0,48,1474.04,154.4)">
                    <path d="M0.596,-0.8L0.464,-0.43C0.461,-0.423 0.455,-0.41 0.446,-0.391C0.448,-0.378 0.449,-0.365 0.448,-0.352L0.44,-0L0.3,-0L0.311,-0.323L0.295,-0.323L0.18,-0L0.04,-0L0.167,-0.352C0.17,-0.359 0.176,-0.372 0.185,-0.391C0.183,-0.404 0.182,-0.417 0.183,-0.43L0.196,-0.8L0.336,-0.8L0.321,-0.459L0.337,-0.459L0.456,-0.8L0.596,-0.8Z" style="fill:white;fill-rule:nonzero;"/>
                </g>
                <g transform="matrix(48,0,0,48,1497.08,154.4)">
                    <path d="M0.336,-0.8L0.366,-0.43L0.374,-0.43L0.446,-0.8L0.586,-0.8L0.43,-0L0.3,-0L0.269,-0.37L0.262,-0.37L0.19,-0L0.05,-0L0.206,-0.8L0.336,-0.8Z" style="fill:white;fill-rule:nonzero;"/>
                </g>
                <g transform="matrix(48,0,0,48,1520.12,154.4)">
                    <path d="M0.112,-0.32C0.119,-0.353 0.134,-0.38 0.158,-0.4C0.182,-0.42 0.211,-0.43 0.244,-0.43L0.382,-0.43L0.426,-0.66L0.326,-0.66L0.303,-0.54L0.163,-0.54L0.192,-0.69C0.199,-0.723 0.214,-0.749 0.238,-0.77C0.261,-0.79 0.289,-0.8 0.321,-0.8L0.484,-0.8C0.513,-0.8 0.535,-0.793 0.551,-0.778C0.567,-0.763 0.575,-0.743 0.575,-0.717C0.575,-0.708 0.574,-0.699 0.572,-0.69L0.516,-0.4C0.509,-0.367 0.494,-0.34 0.47,-0.32C0.446,-0.3 0.417,-0.29 0.384,-0.29L0.246,-0.29L0.217,-0.138L0.46,-0.138L0.433,-0L0.05,-0L0.112,-0.32Z" style="fill:white;fill-rule:nonzero;"/>
                </g>
            </g>
            <g transform="matrix(3.22812,0,0,3.22812,-7.28125,-10.5313)">
                <rect x="56.667" y="56.667" width="33.333" height="33.333" style="fill:rgb(0,148,255);"/>
                <path d="M50,83.333C31.59,83.333 16.667,68.408 16.667,50C16.667,31.588 31.591,16.667 50,16.667C68.408,16.667 83.333,31.589 83.333,50L90,50C90,27.91 72.09,10 50,10C27.909,10 10,27.91 10,50C10,72.09 27.909,90 50,90L50,83.333Z" style="fill:white;fill-rule:nonzero;"/>
                <path d="M50,70C38.954,70 30,61.045 30,50C30,38.952 38.954,30 50,30C61.045,30 70,38.952 70,50L76.667,50C76.667,35.273 64.727,23.333 50,23.333C35.272,23.333 23.333,35.273 23.333,50C23.333,64.727 35.272,76.667 50,76.667L50,70Z" style="fill:white;fill-rule:nonzero;"/>
                <path d="M50,56.667C46.318,56.667 43.333,53.682 43.333,50C43.333,46.318 46.318,43.333 50,43.333C53.682,43.333 56.667,46.318 56.667,50L63.333,50C63.333,42.637 57.363,36.667 50,36.667C42.635,36.667 36.667,42.637 36.667,50C36.667,57.363 42.635,63.333 50,63.333L50,56.667Z" style="fill:white;fill-rule:nonzero;"/>
            </g>
        </g>
    </g>
</svg>
