<?xml version="1.0" encoding="UTF-8" standalone="no"?>
<!DOCTYPE svg PUBLIC "-//W3C//DTD SVG 1.1//EN" "http://www.w3.org/Graphics/SVG/1.1/DTD/svg11.dtd">
<svg width="100%" height="100%" viewBox="0 0 1700 300" version="1.1" xmlns="http://www.w3.org/2000/svg" xmlns:xlink="http://www.w3.org/1999/xlink" xml:space="preserve" xmlns:serif="http://www.serif.com/" style="fill-rule:evenodd;clip-rule:evenodd;stroke-linejoin:round;stroke-miterlimit:2;">
    <g id="black-background" serif:id="black background">
        <rect x="0" y="0" width="1700" height="300"/>
    </g>
    <g id="DATA-PLATFORM" serif:id="DATA PLATFORM">
        <g id="MCP-S3" serif:id="MCP S3">
            <g transform="matrix(1,0,0,1,-5,57.75)">
                <g transform="matrix(172,0,0,172,327,181.6)">
                    <path d="M0.337,-0.8L0.391,-0.54L0.399,-0.54L0.556,-0.8L0.686,-0.8L0.53,-0L0.39,-0L0.469,-0.407L0.461,-0.407L0.33,-0.19L0.324,-0.19L0.276,-0.406L0.269,-0.406L0.19,-0L0.05,-0L0.206,-0.8L0.337,-0.8Z" style="fill:white;fill-rule:nonzero;"/>
                </g>
                <g transform="matrix(172,0,0,172,426.76,181.6)">
                    <path d="M0.493,-0.325L0.451,-0.11C0.445,-0.077 0.43,-0.051 0.407,-0.031C0.384,-0.01 0.356,-0 0.323,-0L0.16,-0C0.131,-0 0.109,-0.008 0.093,-0.023C0.077,-0.038 0.069,-0.059 0.069,-0.085C0.069,-0.096 0.07,-0.104 0.071,-0.11L0.184,-0.69C0.191,-0.723 0.206,-0.75 0.23,-0.77C0.254,-0.79 0.283,-0.8 0.316,-0.8L0.479,-0.8C0.506,-0.8 0.528,-0.793 0.544,-0.778C0.559,-0.763 0.567,-0.742 0.567,-0.717C0.567,-0.708 0.566,-0.699 0.564,-0.69L0.523,-0.477L0.383,-0.477L0.418,-0.66L0.318,-0.66L0.217,-0.14L0.317,-0.14L0.353,-0.325L0.493,-0.325Z" style="fill:white;fill-rule:nonzero;"/>
                </g>
                <g transform="matrix(172,0,0,172,509.32,181.6)">
                    <path d="M0.479,-0.8C0.506,-0.8 0.528,-0.793 0.544,-0.778C0.559,-0.763 0.567,-0.742 0.567,-0.717C0.567,-0.708 0.566,-0.699 0.564,-0.69L0.508,-0.402C0.502,-0.369 0.487,-0.343 0.464,-0.323C0.441,-0.302 0.413,-0.292 0.38,-0.292L0.247,-0.292L0.19,-0L0.05,-0L0.206,-0.8L0.479,-0.8ZM0.374,-0.432L0.418,-0.66L0.318,-0.66L0.274,-0.432L0.374,-0.432Z" style="fill:white;fill-rule:nonzero;"/>
                </g>
                <g transform="matrix(172,0,0,172,624.56,181.6)">
                    <path d="M0.184,-0.69C0.191,-0.723 0.206,-0.75 0.23,-0.77C0.254,-0.79 0.283,-0.8 0.316,-0.8L0.479,-0.8C0.506,-0.8 0.528,-0.793 0.544,-0.778C0.559,-0.763 0.567,-0.742 0.567,-0.717C0.567,-0.708 0.566,-0.699 0.564,-0.69L0.537,-0.55L0.397,-0.55L0.418,-0.66L0.318,-0.66L0.282,-0.473L0.412,-0.473C0.441,-0.473 0.463,-0.466 0.48,-0.451C0.496,-0.436 0.504,-0.415 0.504,-0.389C0.504,-0.381 0.503,-0.372 0.501,-0.363L0.451,-0.11C0.445,-0.077 0.43,-0.05 0.406,-0.03C0.382,-0.01 0.353,-0 0.32,-0L0.157,-0C0.13,-0 0.108,-0.008 0.093,-0.023C0.077,-0.038 0.069,-0.059 0.069,-0.085C0.069,-0.096 0.07,-0.104 0.071,-0.11L0.099,-0.25L0.239,-0.25L0.217,-0.14L0.317,-0.14L0.355,-0.333L0.225,-0.333C0.196,-0.333 0.174,-0.341 0.158,-0.356C0.141,-0.371 0.133,-0.391 0.133,-0.417C0.133,-0.426 0.134,-0.434 0.136,-0.443L0.184,-0.69Z" style="fill:white;fill-rule:nonzero;"/>
                </g>
                <g transform="matrix(172,0,0,172,707.12,181.6)">
                    <path d="M0.381,-0.469L0.418,-0.66L0.318,-0.66L0.299,-0.56L0.159,-0.56L0.184,-0.69C0.191,-0.723 0.206,-0.749 0.23,-0.77C0.253,-0.79 0.281,-0.8 0.313,-0.8L0.479,-0.8C0.506,-0.8 0.528,-0.793 0.544,-0.778C0.559,-0.763 0.567,-0.742 0.567,-0.717C0.567,-0.708 0.566,-0.699 0.564,-0.69L0.525,-0.487C0.518,-0.45 0.496,-0.421 0.46,-0.4C0.482,-0.383 0.493,-0.36 0.493,-0.333C0.493,-0.329 0.492,-0.322 0.491,-0.313L0.451,-0.11C0.445,-0.077 0.43,-0.051 0.407,-0.031C0.384,-0.01 0.356,-0 0.323,-0L0.157,-0C0.13,-0 0.108,-0.008 0.093,-0.023C0.077,-0.038 0.069,-0.059 0.069,-0.085C0.069,-0.096 0.07,-0.104 0.071,-0.11L0.097,-0.24L0.237,-0.24L0.217,-0.14L0.317,-0.14L0.354,-0.331L0.254,-0.331L0.281,-0.469L0.381,-0.469Z" style="fill:white;fill-rule:nonzero;"/>
                </g>
            </g>
            <g transform="matrix(1,3.31276e-17,0,1,-1093,-68.75)">
                <g transform="matrix(48,0,0,48,1451,154.4)">
                    <path d="M0.586,-0.8L0.559,-0.662L0.439,-0.662L0.31,-0L0.17,-0L0.299,-0.662L0.179,-0.662L0.206,-0.8L0.586,-0.8Z" style="fill:white;fill-rule:nonzero;"/>
                </g>
                <g transform="matrix(48,0,0,48,1474.04,154.4)">
                    <path d="M0.596,-0.8L0.464,-0.43C0.461,-0.423 0.455,-0.41 0.446,-0.391C0.448,-0.378 0.449,-0.365 0.448,-0.352L0.44,-0L0.3,-0L0.311,-0.323L0.295,-0.323L0.18,-0L0.04,-0L0.167,-0.352C0.17,-0.359 0.176,-0.372 0.185,-0.391C0.183,-0.404 0.182,-0.417 0.183,-0.43L0.196,-0.8L0.336,-0.8L0.321,-0.459L0.337,-0.459L0.456,-0.8L0.596,-0.8Z" style="fill:white;fill-rule:nonzero;"/>
                </g>
                <g transform="matrix(48,0,0,48,1497.08,154.4)">
                    <path d="M0.336,-0.8L0.366,-0.43L0.374,-0.43L0.446,-0.8L0.586,-0.8L0.43,-0L0.3,-0L0.269,-0.37L0.262,-0.37L0.19,-0L0.05,-0L0.206,-0.8L0.336,-0.8Z" style="fill:white;fill-rule:nonzero;"/>
                </g>
                <g transform="matrix(48,0,0,48,1520.12,154.4)">
                    <path d="M0.112,-0.32C0.119,-0.353 0.134,-0.38 0.158,-0.4C0.182,-0.42 0.211,-0.43 0.244,-0.43L0.382,-0.43L0.426,-0.66L0.326,-0.66L0.303,-0.54L0.163,-0.54L0.192,-0.69C0.199,-0.723 0.214,-0.749 0.238,-0.77C0.261,-0.79 0.289,-0.8 0.321,-0.8L0.484,-0.8C0.513,-0.8 0.535,-0.793 0.551,-0.778C0.567,-0.763 0.575,-0.743 0.575,-0.717C0.575,-0.708 0.574,-0.699 0.572,-0.69L0.516,-0.4C0.509,-0.367 0.494,-0.34 0.47,-0.32C0.446,-0.3 0.417,-0.29 0.384,-0.29L0.246,-0.29L0.217,-0.138L0.46,-0.138L0.433,-0L0.05,-0L0.112,-0.32Z" style="fill:white;fill-rule:nonzero;"/>
                </g>
            </g>
            <g transform="matrix(3.22812,0,0,3.22812,-7.28125,-10.5313)">
                <path d="M46.666,68.334C46.667,80.3 56.363,90 68.333,90C80.303,90 90,80.3 90,68.333C90,56.359 80.303,46.667 68.333,46.667C56.363,46.667 46.666,56.361 46.666,68.334Z" style="fill:rgb(0,148,255);fill-rule:nonzero;"/>
                <path d="M10,23.333C10,30.695 15.972,36.666 23.333,36.666C30.696,36.666 36.665,42.635 36.665,49.999C36.665,57.361 30.697,63.332 23.333,63.332C15.969,63.332 10,69.305 10,76.667C10,84.03 15.97,90 23.333,90C30.696,90 36.666,84.025 36.666,76.667C36.666,54.58 54.573,36.667 76.666,36.665C84.029,36.665 90,30.695 90,23.332C90,15.973 84.029,10 76.667,10C69.305,10 63.333,15.973 63.333,23.335C63.333,30.698 57.363,36.667 50,36.667C42.637,36.667 36.667,30.698 36.667,23.334C36.667,15.972 30.697,10.001 23.333,10.001C15.972,10 10,15.97 10,23.333Z" style="fill:white;fill-rule:nonzero;"/>
            </g>
        </g>
    </g>
</svg>
